<?xml version="1.0" standalone="no"?>
<!DOCTYPE svg PUBLIC "-//W3C//DTD SVG 20010904//EN"
 "http://www.w3.org/TR/2001/REC-SVG-20010904/DTD/svg10.dtd">
<svg version="1.0" xmlns="http://www.w3.org/2000/svg"
 width="2048.000000pt" height="1154.000000pt" viewBox="0 0 2048.000000 1154.000000"
 preserveAspectRatio="xMidYMid meet">

<g transform="translate(0.000000,1154.000000) scale(0.100000,-0.100000)"
fill="#000000" stroke="none">
<path d="M6950 7862 c0 -25 6 -32 43 -46 135 -51 204 -163 244 -389 14 -80 16
-250 20 -1297 3 -803 1 -1244 -6 -1322 -18 -197 -60 -291 -147 -330 -38 -16
-44 -23 -44 -48 l0 -30 315 0 315 0 0 29 c0 26 -6 31 -60 51 -70 26 -149 92
-185 154 -36 63 -72 199 -85 326 -8 81 -10 466 -8 1297 l3 1182 635 -1045 635
-1044 50 0 50 0 619 1044 c340 575 624 1053 632 1063 12 15 13 -182 11 -1347
-3 -1222 -5 -1372 -19 -1431 -29 -117 -67 -173 -141 -204 -31 -13 -37 -20 -37
-45 l0 -30 405 0 405 0 0 30 c0 25 -6 32 -37 45 -76 32 -120 99 -144 221 -17
82 -25 2435 -10 2614 26 298 96 439 247 501 47 20 54 26 54 51 l0 28 -287 -2
-286 -3 -634 -1065 c-348 -586 -636 -1066 -640 -1067 -5 -2 -299 478 -654
1065 l-646 1067 -307 3 -306 2 0 -28z"/>
<path d="M11220 7860 c0 -24 6 -33 28 -41 44 -17 101 -79 122 -135 44 -119 45
-157 45 -1544 0 -1389 -1 -1414 -46 -1535 -20 -55 -77 -117 -121 -134 -22 -8
-28 -17 -28 -41 l0 -30 1159 0 1159 0 6 73 c3 39 11 164 17 276 10 172 10 204
-2 212 -27 17 -37 8 -84 -76 -122 -216 -260 -324 -486 -377 -90 -22 -113 -23
-559 -23 -526 0 -516 -1 -568 78 l-27 41 0 1470 c0 1200 3 1483 14 1538 19 94
64 166 124 196 39 21 47 29 47 53 l0 29 -400 0 -400 0 0 -30z"/>
<path d="M7481 3392 c-109 -292 -103 -278 -116 -251 -7 13 -41 99 -75 192 -34
92 -65 167 -69 167 -4 0 -28 -100 -55 -222 -26 -123 -50 -233 -53 -245 -4 -19
-1 -23 19 -23 24 0 26 6 57 153 35 165 39 182 46 176 2 -2 32 -77 67 -166 35
-89 68 -162 73 -162 6 1 17 19 26 42 95 246 113 288 119 275 4 -7 22 -82 40
-165 31 -145 34 -153 56 -153 13 0 24 1 24 3 0 1 -14 65 -30 142 -17 77 -40
185 -52 240 -11 55 -24 103 -27 107 -3 4 -26 -46 -50 -110z"/>
<path d="M8236 3501 c-12 -19 -196 -472 -196 -482 0 -6 10 -9 22 -7 17 2 29
18 48 65 l25 63 106 0 107 0 25 -62 c21 -54 29 -63 52 -66 20 -3 26 0 22 10
-3 7 -49 119 -102 248 -53 129 -98 236 -100 238 -2 2 -6 -1 -9 -7z m52 -208
l40 -103 -84 0 c-46 0 -84 2 -84 4 0 7 69 187 76 198 8 13 7 15 52 -99z"/>
<path d="M12330 3260 l0 -250 25 0 25 0 0 177 0 176 125 -179 c69 -98 129
-180 133 -182 4 -1 6 107 5 240 -2 236 -3 243 -23 246 -19 3 -20 -1 -20 -167
0 -94 -3 -171 -7 -171 -5 0 -64 81 -133 180 -68 99 -126 180 -127 180 -2 0 -3
-112 -3 -250z"/>
<path d="M13266 3480 c-98 -39 -156 -123 -156 -226 1 -205 228 -316 391 -191
46 35 88 106 89 150 l0 27 -120 0 c-113 0 -120 -1 -120 -20 0 -18 7 -20 88
-20 49 0 91 -3 95 -6 9 -9 -17 -55 -45 -80 -38 -35 -84 -54 -133 -54 -118 0
-195 77 -195 195 0 65 16 100 64 142 89 79 221 64 289 -34 28 -39 67 -58 67
-33 0 37 -69 115 -127 144 -52 26 -131 29 -187 6z"/>
<path d="M8890 3250 c0 -233 1 -240 20 -240 19 0 20 7 20 95 l0 95 33 0 c31 0
39 -8 102 -95 59 -82 72 -95 97 -95 15 0 28 3 28 6 0 3 -29 44 -65 89 -36 46
-65 86 -65 89 0 3 20 14 44 25 111 49 114 193 6 249 -36 18 -61 22 -132 22
l-88 0 0 -240z m211 177 c47 -36 52 -105 10 -148 -27 -27 -35 -29 -105 -29
l-76 0 0 95 0 95 78 0 c45 -1 84 -6 93 -13z"/>
<path d="M9644 3477 c-2 -7 -3 -114 -2 -237 3 -224 3 -225 25 -228 22 -3 22
-1 25 109 l3 112 80 -111 c68 -96 84 -112 107 -112 16 0 28 2 28 5 0 3 -39 57
-86 120 l-85 115 78 108 c104 140 100 132 65 132 -25 0 -38 -13 -108 -111
l-79 -112 -3 112 c-2 103 -4 111 -23 111 -11 0 -22 -6 -25 -13z"/>
<path d="M10350 3250 l0 -240 140 0 140 0 0 25 0 25 -115 0 -115 0 0 85 0 85
115 0 c108 0 115 1 115 20 0 19 -7 20 -115 20 l-115 0 0 85 0 85 115 0 115 0
0 25 0 25 -140 0 -140 0 0 -240z"/>
<path d="M11080 3465 c0 -24 3 -25 55 -25 l55 0 0 -215 0 -215 25 0 25 0 0
215 0 215 54 0 c45 0 55 3 59 19 3 11 2 22 -1 25 -3 3 -65 6 -139 6 l-133 0 0
-25z"/>
<path d="M11800 3249 l0 -240 23 3 22 3 3 238 2 237 -25 0 -25 0 0 -241z"/>
</g>
</svg>
